<svg width="27" height="22" viewBox="0 0 27 22" fill="none" xmlns="http://www.w3.org/2000/svg">
<path d="M20.4518 5.01897C20.7059 4.8674 20.9669 5.20498 20.7482 5.40478L10.7574 14.3611C10.6657 14.4438 10.5881 14.5816 10.5811 14.7056C10.4541 16.3177 10.3412 17.9299 10.2212 19.5351C10.2142 19.604 10.2142 19.6729 10.2071 19.7418C10.1718 20.2723 10.8209 20.5824 11.2161 20.2172L11.2231 20.2103C12.2109 19.2871 13.1916 18.3708 14.1794 17.4476C14.25 17.3856 14.3205 17.3236 14.3981 17.2616C14.4899 17.3305 14.5745 17.3787 14.6521 17.4338C16.5854 18.8118 18.5116 20.1965 20.4448 21.5676C20.6776 21.7329 20.9669 21.8569 21.2491 21.9396C21.8277 22.1118 22.3004 21.912 22.5826 21.3884C22.7238 21.1197 22.8296 20.8166 22.8931 20.5203C24.1843 14.6574 25.4613 8.78752 26.7384 2.92456C26.8583 2.3734 26.9853 1.80846 26.9994 1.25041C27.0206 0.38922 26.4279 -0.099935 25.6024 0.0171865C25.4472 0.0378551 25.292 0.0860816 25.1509 0.141198C18.9419 2.46296 12.733 4.78472 6.51703 7.10648C4.70374 7.78166 2.89045 8.46372 1.08422 9.14578C0.710268 9.29046 0.364544 9.47647 0.124653 9.7865C-0.0587927 10.0276 -0.0376259 10.3583 0.174042 10.5719C0.392766 10.7855 0.667935 10.9026 0.971326 10.9991C2.95395 11.5984 4.92952 12.2047 6.91214 12.7972C7.02503 12.8317 7.18731 12.7972 7.29315 12.7352C11.2513 10.317 16.1973 7.54052 20.4518 5.01897Z" fill="white"/>
</svg>
