<svg width="11" height="22" viewBox="0 0 11 22" fill="none" xmlns="http://www.w3.org/2000/svg">
<path d="M3.06194 12.4207C2.94706 12.4207 2.8577 12.4207 2.76835 12.4207C2.04076 12.4207 1.30679 12.4276 0.579199 12.4207C0.138816 12.4207 0.00478677 12.2898 0.00478677 11.8143C-0.00159559 10.7185 -0.00159559 9.62963 0.00478677 8.53387C0.00478677 8.06525 0.138816 7.92741 0.579199 7.92741C1.30679 7.92741 2.04076 7.92741 2.76835 7.92741C2.8577 7.92741 2.94706 7.92741 3.06832 7.92741C3.06832 7.79647 3.06832 7.6931 3.06832 7.58973C3.08747 6.56978 3.04917 5.54293 3.13214 4.52987C3.33638 1.9731 5.14897 0.126158 7.52959 0.0227844C8.52524 -0.018565 9.52089 0.00900123 10.5165 0.00900123C10.8484 0.00900123 10.9888 0.160616 10.9952 0.518977C11.0016 1.58717 11.0016 2.65536 10.9952 3.71667C10.9952 4.08192 10.8548 4.22664 10.4974 4.23353C9.82724 4.25421 9.15071 4.25421 8.48056 4.2611C7.69553 4.27488 7.38918 4.5919 7.37641 5.43267C7.36365 6.23209 7.37641 7.02462 7.37641 7.85161C7.47853 7.8585 7.56789 7.86539 7.65086 7.86539C8.51248 7.86539 9.37409 7.86539 10.2421 7.86539C10.7718 7.86539 10.8995 8.00322 10.8995 8.58211C10.8995 9.63652 10.8995 10.6978 10.8995 11.7522C10.8995 12.2484 10.7846 12.3725 10.3251 12.3794C9.4443 12.3863 8.56353 12.3794 7.68277 12.3794C7.59341 12.3794 7.50406 12.3794 7.37003 12.3794C7.37003 12.5103 7.37003 12.6206 7.37003 12.7377C7.37003 15.5495 7.37003 18.3681 7.37003 21.1799C7.37003 21.9035 7.28068 22 6.61053 22C5.67871 22 4.75326 22 3.82144 22C3.15767 22 3.06832 21.9104 3.06832 21.2006C3.06832 18.3888 3.06832 15.5702 3.06832 12.7584C3.06194 12.6619 3.06194 12.5585 3.06194 12.4207Z" fill="#283D6D"/>
</svg>
