<svg width="22" height="22" viewBox="0 0 22 22" fill="none" xmlns="http://www.w3.org/2000/svg">
<path fill-rule="evenodd" clip-rule="evenodd" d="M6.16496 0.058457C2.91932 0.291919 0.872435 1.97224 0.245017 4.91807C0.0232948 5.959 -0.0874342 13.3449 0.0830957 15.713C0.36356 19.6073 2.38402 21.6419 6.25641 21.9298C7.51608 22.0234 14.5042 22.0234 15.7638 21.9298C17.8226 21.7767 18.9969 21.2989 20.1491 20.1452C21.2989 18.994 21.7887 17.7889 21.9346 15.7522C22.0214 14.5396 22.022 7.5506 21.9353 6.27574C21.6711 2.38758 19.6226 0.336477 15.7222 0.0548765C14.6816 -0.0202478 7.22012 -0.0174629 6.16496 0.058457ZM17.1628 3.83238C18.3483 4.17279 18.5777 5.70697 17.5434 6.37845C16.3134 7.17697 14.8237 5.68542 15.6213 4.45393C15.9724 3.91168 16.5824 3.66575 17.1628 3.83238ZM12.3769 5.62455C16.2719 6.60561 17.8493 11.4241 15.2891 14.5205C11.9883 18.5124 5.49661 16.1754 5.49661 10.9952C5.49661 7.35579 8.85191 4.73672 12.3769 5.62455ZM10.5732 7.746C7.88661 8.14019 6.79151 11.3939 8.70171 13.3064C10.7602 15.3674 14.2656 13.9112 14.2656 10.9952C14.2656 9.00687 12.5099 7.46188 10.5732 7.746Z" fill="#283D6D"/>
</svg>
